<svg width="160" height="160" viewBox="0 0 160 160" fill="none" xmlns="http://www.w3.org/2000/svg">
<path d="M150.693 44.5785C182.431 105.703 126.641 174.67 60.1307 157.833C30.2745 150.409 6.2745 124.526 1.30718 94.1471C-4.33988 63.9249 9.30718 31.4543 34.8235 14.3563C69.8039 -9.69602 118.275 -1.69602 143.32 32.7092C143.477 32.8661 143.425 33.1275 143.216 33.2844C143.059 33.4412 142.797 33.389 142.641 33.1798C139.19 28.7354 135.268 24.7092 130.98 21.1014C123.922 15.0883 115.66 10.3824 106.928 7.19287C62.4837 -8.9117 13.6993 17.8595 3.97385 64.3432C-7.00654 116.422 37.281 164.369 90.0915 157.206C130.824 152.082 161.098 114.487 157.752 73.5981C157.02 63.7157 154.405 53.938 150.065 44.9445C149.961 44.7876 150.065 44.5785 150.222 44.4739C150.379 44.3693 150.588 44.4216 150.693 44.5785Z" fill="white"/>
</svg>
